<svg width="2000" height="425" viewBox="0 0 2000 425" fill="none" xmlns="http://www.w3.org/2000/svg">
<g clip-path="url(#clip0_407_36)">
<g filter="url(#filter0_fn_407_36)">
<ellipse cx="1000.5" cy="212.5" rx="512.5" ry="202.5" fill="#FF1BB3" fill-opacity="0.42"/>
</g>
<rect width="1746" height="200" transform="translate(127 113)" fill="#50173D"/>
<g filter="url(#filter2_d_407_36)">
<path d="M306.4 273.36C304.4 273.52 302.44 273.68 300.52 273.84C298.68 274.08 296.6 274.2 294.28 274.2C285.96 274.2 279.36 272.56 274.48 269.28C269.68 266 267.28 260.64 267.28 253.2V238.56C267.28 236.4 266.64 234.72 265.36 233.52C264.08 232.32 262.16 231.56 259.6 231.24L256.48 230.88V208.56L259.6 208.2C262.16 207.88 264.08 207.12 265.36 205.92C266.64 204.72 267.28 203.04 267.28 200.88V186.24C267.28 178.8 269.68 173.44 274.48 170.16C279.36 166.88 285.96 165.24 294.28 165.24C297.08 165.24 299.4 165.36 301.24 165.6C303.16 165.84 304.88 166.08 306.4 166.32V181.8C303.12 181.72 300.28 182.04 297.88 182.76C295.56 183.4 293.76 184.56 292.48 186.24C291.28 187.92 290.68 190.24 290.68 193.2V206.4C290.68 210 289.8 212.88 288.04 215.04C286.28 217.2 283.84 218.6 280.72 219.24V220.2C283.84 220.76 286.28 222.16 288.04 224.4C289.8 226.56 290.68 229.44 290.68 233.04V246.24C290.68 249.2 291.28 251.52 292.48 253.2C293.76 254.88 295.56 256.04 297.88 256.68C300.28 257.4 303.12 257.72 306.4 257.64V273.36Z" fill="#738D9F"/>
<path d="M354.405 255V171H398.805C405.125 171 410.605 172.16 415.245 174.48C419.885 176.72 423.445 179.92 425.925 184.08C428.485 188.24 429.765 193.16 429.765 198.84C429.765 204.36 428.645 208.92 426.405 212.52C424.165 216.12 421.165 218.96 417.405 221.04C413.645 223.12 409.445 224.6 404.805 225.48C400.245 226.36 395.645 226.8 391.005 226.8H381.165V255H354.405ZM405.045 255L388.965 225.12L414.165 220.68L434.445 255H405.045ZM381.165 208.92H392.805C396.485 208.92 399.165 208.28 400.845 207C402.605 205.64 403.485 203.6 403.485 200.88C403.485 198.08 402.645 196.08 400.965 194.88C399.285 193.68 396.565 193.08 392.805 193.08H381.165V208.92ZM442.295 255V171H510.815V193.8H469.055V202.56H506.015V222.36H469.055V231.96H511.655V255H442.295ZM516.48 255L546.6 171H576.48L607.08 255H579L561.72 198.24H561.24L543.96 255H516.48ZM543.84 243.24V223.68H579.36V243.24H543.84ZM649.753 256.08C641.033 256.08 633.353 254.52 626.713 251.4C620.153 248.28 615.033 243.52 611.353 237.12C607.673 230.72 605.833 222.64 605.833 212.88C605.833 205.84 606.953 199.64 609.193 194.28C611.513 188.92 614.713 184.44 618.793 180.84C622.873 177.16 627.633 174.4 633.073 172.56C638.513 170.72 644.433 169.8 650.833 169.8C655.073 169.8 659.353 170.24 663.673 171.12C667.993 172 672.073 173.16 675.913 174.6L676.633 174.84L672.313 195.72L669.313 195.36C666.273 194.96 663.353 194.68 660.553 194.52C657.833 194.28 655.033 194.16 652.153 194.16C647.993 194.16 644.513 194.76 641.713 195.96C638.913 197.16 636.793 199.12 635.353 201.84C633.913 204.48 633.193 208.12 633.193 212.76C633.193 217.56 633.833 221.36 635.113 224.16C636.473 226.88 638.473 228.8 641.113 229.92C643.833 231.04 647.273 231.6 651.433 231.6C653.833 231.6 656.473 231.48 659.353 231.24C662.233 231 665.393 230.72 668.833 230.4L673.993 229.8L677.953 250.56L676.393 251.16C672.313 252.68 667.953 253.88 663.313 254.76C658.673 255.64 654.153 256.08 649.753 256.08ZM707.994 255V194.4H682.914V171H759.714V194.4H734.754V255H707.994Z" fill="#149ECA"/>
<path d="M828.697 255V194.4H803.617V171H880.417V194.4H855.457V255H828.697ZM912.869 255L884.669 171H912.509L926.429 222.24H927.149L940.829 171H963.749L978.029 222H978.629L992.789 171H1019.67L992.669 255H966.389L951.629 206.4H951.269L937.949 255H912.869Z" fill="#38BDF8"/>
<path d="M1693.21 273.36V257.64C1696.57 257.72 1699.41 257.4 1701.73 256.68C1704.05 256.04 1705.81 254.88 1707.01 253.2C1708.29 251.52 1708.93 249.2 1708.93 246.24V233.04C1708.93 229.44 1709.81 226.56 1711.57 224.4C1713.33 222.16 1715.77 220.76 1718.89 220.2V219.24C1715.77 218.6 1713.33 217.2 1711.57 215.04C1709.81 212.88 1708.93 210 1708.93 206.4V193.2C1708.93 190.24 1708.29 187.92 1707.01 186.24C1705.81 184.56 1704.05 183.4 1701.73 182.76C1699.41 182.04 1696.57 181.72 1693.21 181.8V166.32C1694.81 166.08 1696.53 165.84 1698.37 165.6C1700.29 165.36 1702.61 165.24 1705.33 165.24C1713.65 165.24 1720.21 166.88 1725.01 170.16C1729.89 173.44 1732.33 178.8 1732.33 186.24V200.88C1732.33 203.04 1732.97 204.72 1734.25 205.92C1735.53 207.12 1737.45 207.88 1740.01 208.2L1743.13 208.56V230.88L1740.01 231.24C1737.45 231.56 1735.53 232.32 1734.25 233.52C1732.97 234.72 1732.33 236.4 1732.33 238.56V253.2C1732.33 260.64 1729.89 266 1725.01 269.28C1720.21 272.56 1713.65 274.2 1705.33 274.2C1703.09 274.2 1701.01 274.08 1699.09 273.84C1697.25 273.68 1695.29 273.52 1693.21 273.36Z" fill="#738D9F"/>
<path d="M1067.73 255.031V171.031H1094.49V231.631H1133.01V255.031H1067.73ZM1136.64 255.031L1166.76 171.031H1196.64L1227.24 255.031H1199.16L1181.88 198.271H1181.4L1164.12 255.031H1136.64ZM1164 243.271V223.711H1199.52V243.271H1164ZM1250.32 255.031V230.791L1216.36 171.031H1246.84L1263.64 205.831H1264.12L1281.04 171.031H1310.32L1277.08 229.831V255.031H1250.32ZM1351.49 256.111C1342.21 256.111 1334.25 254.351 1327.61 250.831C1320.97 247.231 1315.89 242.191 1312.37 235.711C1308.85 229.231 1307.09 221.631 1307.09 212.911C1307.09 204.191 1308.93 196.631 1312.61 190.231C1316.29 183.751 1321.45 178.751 1328.09 175.231C1334.81 171.711 1342.61 169.951 1351.49 169.951C1360.77 169.951 1368.73 171.751 1375.37 175.351C1382.01 178.871 1387.09 183.871 1390.61 190.351C1394.13 196.751 1395.89 204.351 1395.89 213.151C1395.89 221.871 1394.05 229.471 1390.37 235.951C1386.69 242.351 1381.53 247.311 1374.89 250.831C1368.25 254.351 1360.45 256.111 1351.49 256.111ZM1351.49 231.511C1355.09 231.511 1358.13 230.991 1360.61 229.951C1363.17 228.911 1365.13 227.031 1366.49 224.311C1367.85 221.591 1368.53 217.791 1368.53 212.911C1368.53 208.031 1367.89 204.271 1366.61 201.631C1365.33 198.991 1363.41 197.151 1360.85 196.111C1358.37 195.071 1355.25 194.551 1351.49 194.551C1347.97 194.551 1344.93 195.071 1342.37 196.111C1339.81 197.151 1337.85 199.031 1336.49 201.751C1335.13 204.391 1334.45 208.191 1334.45 213.151C1334.45 217.951 1335.09 221.711 1336.37 224.431C1337.65 227.071 1339.57 228.911 1342.13 229.951C1344.69 230.991 1347.81 231.511 1351.49 231.511ZM1445.52 256.111C1437.04 256.111 1429.76 254.671 1423.68 251.791C1417.6 248.831 1412.92 244.711 1409.64 239.431C1406.44 234.151 1404.84 227.911 1404.84 220.711V171.031H1431.6V217.231C1431.6 222.751 1432.88 226.471 1435.44 228.391C1438 230.311 1441.64 231.271 1446.36 231.271C1451 231.271 1454.52 230.311 1456.92 228.391C1459.4 226.471 1460.64 222.751 1460.64 217.231V171.031H1486.56V220.711C1486.56 227.911 1484.84 234.151 1481.4 239.431C1477.96 244.711 1473.16 248.831 1467 251.791C1460.84 254.671 1453.68 256.111 1445.52 256.111ZM1519.41 255.031V194.431H1494.33V171.031H1571.13V194.431H1546.17V255.031H1519.41ZM1609.28 256.111C1605.12 256.111 1600.84 255.791 1596.44 255.151C1592.04 254.511 1587.48 253.551 1582.76 252.271L1575.32 250.231L1579.52 229.831L1589.84 231.151C1592.48 231.471 1595.64 231.791 1599.32 232.111C1603.08 232.431 1607 232.591 1611.08 232.591C1613.64 232.591 1615.4 232.351 1616.36 231.871C1617.32 231.391 1617.8 230.791 1617.8 230.071C1617.8 229.511 1617.6 228.991 1617.2 228.511C1616.8 228.031 1615.68 227.431 1613.84 226.711C1612.08 225.991 1609.08 224.991 1604.84 223.711C1598.28 221.711 1593.08 219.591 1589.24 217.351C1585.4 215.111 1582.68 212.391 1581.08 209.191C1579.48 205.911 1578.68 201.751 1578.68 196.711C1578.68 190.391 1580.24 185.271 1583.36 181.351C1586.56 177.431 1590.88 174.551 1596.32 172.711C1601.84 170.871 1608.08 169.951 1615.04 169.951C1618.72 169.951 1622.52 170.231 1626.44 170.791C1630.36 171.271 1634.24 171.991 1638.08 172.951L1644.68 174.631L1640.96 194.911L1629.56 193.711C1628.04 193.551 1626.04 193.431 1623.56 193.351C1621.08 193.191 1617.96 193.111 1614.2 193.111C1611.24 193.111 1609.12 193.351 1607.84 193.831C1606.56 194.311 1605.92 195.111 1605.92 196.231C1605.92 196.791 1606.2 197.311 1606.76 197.791C1607.32 198.271 1608.64 198.831 1610.72 199.471C1612.88 200.111 1616.28 201.031 1620.92 202.231C1627.4 203.751 1632.44 205.671 1636.04 207.991C1639.72 210.231 1642.28 212.911 1643.72 216.031C1645.24 219.151 1646 222.791 1646 226.951C1646 233.591 1644.36 239.071 1641.08 243.391C1637.88 247.711 1633.48 250.911 1627.88 252.991C1622.36 255.071 1616.16 256.111 1609.28 256.111Z" fill="#D655AB"/>
</g>
<g filter="url(#filter3_dn_407_36)">
<path d="M127 28V396.5H92V28H127Z" fill="#D655AB"/>
<path d="M1908 28V396.5H1873V28H1908Z" fill="#D655AB"/>
<path d="M1959 78V113H41V78H1959Z" fill="#D655AB"/>
<path d="M1959 313V348H41V313H1959Z" fill="#D655AB"/>
</g>
</g>
<defs>
<filter id="filter0_fn_407_36" x="-5.10001" y="-483.1" width="2011.2" height="1391.2" filterUnits="userSpaceOnUse" color-interpolation-filters="sRGB">
<feFlood flood-opacity="0" result="BackgroundImageFix"/>
<feBlend mode="normal" in="SourceGraphic" in2="BackgroundImageFix" result="shape"/>
<feGaussianBlur stdDeviation="246.55" result="effect1_foregroundBlur_407_36"/>
<feTurbulence type="fractalNoise" baseFrequency="0.90909087657928467 0.90909087657928467" stitchTiles="stitch" numOctaves="3" result="noise" seed="2242" />
<feColorMatrix in="noise" type="luminanceToAlpha" result="alphaNoise" />
<feComponentTransfer in="alphaNoise" result="coloredNoise1">
<feFuncA type="discrete" tableValues="1 1 1 1 1 1 1 1 1 1 1 1 1 1 1 1 1 1 1 1 1 1 1 1 1 1 1 1 1 1 1 1 1 1 1 1 1 1 1 1 1 1 1 1 1 1 1 1 1 1 1 0 0 0 0 0 0 0 0 0 0 0 0 0 0 0 0 0 0 0 0 0 0 0 0 0 0 0 0 0 0 0 0 0 0 0 0 0 0 0 0 0 0 0 0 0 0 0 0 0 "/>
</feComponentTransfer>
<feComposite operator="in" in2="effect1_foregroundBlur_407_36" in="coloredNoise1" result="noise1Clipped" />
<feFlood flood-color="rgba(0, 0, 0, 0.25)" result="color1Flood" />
<feComposite operator="in" in2="noise1Clipped" in="color1Flood" result="color1" />
<feMerge result="effect2_noise_407_36">
<feMergeNode in="effect1_foregroundBlur_407_36" />
<feMergeNode in="color1" />
</feMerge>
</filter>
<filter id="filter2_d_407_36" x="196.68" y="109.442" width="1606.25" height="228.561" filterUnits="userSpaceOnUse" color-interpolation-filters="sRGB">
<feFlood flood-opacity="0" result="BackgroundImageFix"/>
<feColorMatrix in="SourceAlpha" type="matrix" values="0 0 0 0 0 0 0 0 0 0 0 0 0 0 0 0 0 0 127 0" result="hardAlpha"/>
<feOffset dy="4"/>
<feGaussianBlur stdDeviation="29.9"/>
<feComposite in2="hardAlpha" operator="out"/>
<feColorMatrix type="matrix" values="0 0 0 0 1 0 0 0 0 1 0 0 0 0 1 0 0 0 0.32 0"/>
<feBlend mode="normal" in2="BackgroundImageFix" result="effect1_dropShadow_407_36"/>
<feBlend mode="normal" in="SourceGraphic" in2="effect1_dropShadow_407_36" result="shape"/>
</filter>
<filter id="filter3_dn_407_36" x="17.3" y="4.3" width="1965.4" height="415.9" filterUnits="userSpaceOnUse" color-interpolation-filters="sRGB">
<feFlood flood-opacity="0" result="BackgroundImageFix"/>
<feColorMatrix in="SourceAlpha" type="matrix" values="0 0 0 0 0 0 0 0 0 0 0 0 0 0 0 0 0 0 127 0" result="hardAlpha"/>
<feOffset/>
<feGaussianBlur stdDeviation="11.85"/>
<feComposite in2="hardAlpha" operator="out"/>
<feColorMatrix type="matrix" values="0 0 0 0 0.221154 0 0 0 0 0.221154 0 0 0 0 0.221154 0 0 0 0.25 0"/>
<feBlend mode="normal" in2="BackgroundImageFix" result="effect1_dropShadow_407_36"/>
<feBlend mode="normal" in="SourceGraphic" in2="BackgroundImageFix" result="shape"/>
<feTurbulence type="fractalNoise" baseFrequency="2 2" stitchTiles="stitch" numOctaves="3" result="noise" seed="5480" />
<feColorMatrix in="noise" type="luminanceToAlpha" result="alphaNoise" />
<feComponentTransfer in="alphaNoise" result="coloredNoise1">
<feFuncA type="discrete" tableValues="1 1 1 1 1 1 1 1 1 1 1 1 1 1 1 1 1 1 1 1 1 1 1 1 1 1 1 1 1 1 1 1 1 1 1 1 1 1 1 1 1 1 1 1 1 1 1 1 1 1 1 0 0 0 0 0 0 0 0 0 0 0 0 0 0 0 0 0 0 0 0 0 0 0 0 0 0 0 0 0 0 0 0 0 0 0 0 0 0 0 0 0 0 0 0 0 0 0 0 0 "/>
</feComponentTransfer>
<feComposite operator="in" in2="shape" in="coloredNoise1" result="noise1Clipped" />
<feFlood flood-color="rgba(0, 0, 0, 0.25)" result="color1Flood" />
<feComposite operator="in" in2="noise1Clipped" in="color1Flood" result="color1" />
<feMerge result="effect2_noise_407_36">
<feMergeNode in="shape" />
<feMergeNode in="color1" />
</feMerge>
<feBlend mode="normal" in="effect2_noise_407_36" in2="effect1_dropShadow_407_36" result="effect2_noise_407_36"/>
</filter>
<clipPath id="clip0_407_36">
<rect width="2000" height="425" fill="white"/>
</clipPath>
</defs>
</svg>
